HIERARCHY
ROOT hips
{
  OFFSET 0 11.86390953 0.3628582958
  CHANNELS 6 Xposition Yposition Zposition Yrotation Xrotation Zrotation
  JOINT spine
  {
    OFFSET 0 0.05383551117999996 0
    CHANNELS 3 Yrotation Xrotation Zrotation
    JOINT chest
    {
      OFFSET 0 0.6394558760401424 0
      CHANNELS 3 Yrotation Xrotation Zrotation
      JOINT neck
      {
        OFFSET 0 2.720089088562982 0
        CHANNELS 3 Yrotation Xrotation Zrotation
        JOINT head
        {
          OFFSET 0 0.37880844870545777 0
          CHANNELS 3 Yrotation Xrotation Zrotation
          JOINT rightEye
          {
            OFFSET -0.42867780714 0.7547055649100001 0.7381831347
            CHANNELS 3 Yrotation Xrotation Zrotation
            End Site
            {
              OFFSET -0.42867780714 0.7547055649100001 0.7381831347
            }
          }
          JOINT leftEye
          {
            OFFSET 0.428676479 0.7547055559999993 0.7381844503
            CHANNELS 3 Yrotation Xrotation Zrotation
            End Site
            {
              OFFSET 0.428676479 0.7547055559999993 0.7381844503
            }
          }
          JOINT jaw
          {
            OFFSET -0.18933892286100001 1.5626303011000007 1.137441874206
            CHANNELS 3 Yrotation Xrotation Zrotation
            End Site
            {
              OFFSET -0.18933892286100001 1.5626303011000007 1.137441874206
            }
          }
        }
      }
      JOINT rightShoulder
      {
        OFFSET -0.6795351508 2.0665205 0
        CHANNELS 3 Yrotation Xrotation Zrotation
        JOINT rightUpperArm
        {
          OFFSET -0.7287400483531672 0 0
          CHANNELS 3 Yrotation Xrotation Zrotation
          JOINT rightLowerArm
          {
            OFFSET -1.9872982039174532 0 0
            CHANNELS 3 Yrotation Xrotation Zrotation
            JOINT rightHand
            {
              OFFSET -2.6451847532219275 0 0
              CHANNELS 3 Yrotation Xrotation Zrotation
              JOINT rightLittleProximal
              {
                OFFSET -0.8008804099999995 -0.09592044000000044 -0.26183688629999996
                CHANNELS 3 Yrotation Xrotation Zrotation
                JOINT rightLittleIntermediate
                {
                  OFFSET -0.2473955153999997 -0.02541697026000067 0.002370178700999967
                  CHANNELS 3 Yrotation Xrotation Zrotation
                  JOINT rightLittleDistal
                  {
                    OFFSET -0.163687229200001 -0.015790700860001117 -0.0004274845300000635
                    CHANNELS 3 Yrotation Xrotation Zrotation
                    End Site
                    {
                      OFFSET -0.163687229200001 -0.015790700860001117 -0.0004274845300000635
                    }
                  }
                }
              }
              JOINT rightRingProximal
              {
                OFFSET -0.8393382799999985 -0.06223833561000025 -0.09213143500000005
                CHANNELS 3 Yrotation Xrotation Zrotation
                JOINT rightRingIntermediate
                {
                  OFFSET -0.3284497260000011 -0.03264224524000103 0.009408593183000052
                  CHANNELS 3 Yrotation Xrotation Zrotation
                  JOINT rightRingDistal
                  {
                    OFFSET -0.19447660429999902 -0.021730899850000318 0.003074347969000052
                    CHANNELS 3 Yrotation Xrotation Zrotation
                    End Site
                    {
                      OFFSET -0.19447660429999902 -0.021730899850000318 0.003074347969000052
                    }
                  }
                }
              }
              JOINT rightMiddleProximal
              {
                OFFSET -0.8473005199999989 -0.06735503500000095 0.10541820299999995
                CHANNELS 3 Yrotation Xrotation Zrotation
                JOINT rightMiddleIntermediate
                {
                  OFFSET -0.3450455799999995 -0.02481901642000084 0.019012570390000032
                  CHANNELS 3 Yrotation Xrotation Zrotation
                  JOINT rightMiddleDistal
                  {
                    OFFSET -0.23542332000000088 -0.025003910029999243 0.0075583457949999905
                    CHANNELS 3 Yrotation Xrotation Zrotation
                    End Site
                    {
                      OFFSET -0.23542332000000088 -0.025003910029999243 0.0075583457949999905
                    }
                  }
                }
              }
              JOINT rightIndexProximal
              {
                OFFSET -0.8008568281999987 -0.09897839600000169 0.29462796
                CHANNELS 3 Yrotation Xrotation Zrotation
                JOINT rightIndexIntermediate
                {
                  OFFSET -0.30524754480000016 -0.024634122809999992 0.02743375304999998
                  CHANNELS 3 Yrotation Xrotation Zrotation
                  JOINT rightIndexDistal
                  {
                    OFFSET -0.23067378950000017 -0.016876459159999913 0.008484125099999983
                    CHANNELS 3 Yrotation Xrotation Zrotation
                    End Site
                    {
                      OFFSET -0.23067378950000017 -0.016876459159999913 0.008484125099999983
                    }
                  }
                }
              }
              JOINT rightThumbProximal
              {
                OFFSET -0.25574064999999935 -0.12833189930000155 0.22385698609999993
                CHANNELS 3 Yrotation Xrotation Zrotation
                JOINT rightThumbIntermediate
                {
                  OFFSET -0.22791743260000086 -0.07103586192999978 0.27385039
                  CHANNELS 3 Yrotation Xrotation Zrotation
                  JOINT rightThumbDistal
                  {
                    OFFSET -0.13610267659999975 -0.03369390969999997 0.14246511509999996
                    CHANNELS 3 Yrotation Xrotation Zrotation
                    End Site
                    {
                      OFFSET -0.13610267659999975 -0.03369390969999997 0.14246511509999996
                    }
                  }
                }
              }
            }
          }
        }
      }
      JOINT leftShoulder
      {
        OFFSET 0.6795338396 2.0665205 0
        CHANNELS 3 Yrotation Xrotation Zrotation
        JOINT leftUpperArm
        {
          OFFSET 0.7287383950230443 0 0
          CHANNELS 3 Yrotation Xrotation Zrotation
          JOINT leftLowerArm
          {
            OFFSET 1.9872997282019604 0 0
            CHANNELS 3 Yrotation Xrotation Zrotation
            JOINT leftHand
            {
              OFFSET 2.6451820781302327 0 0
              CHANNELS 3 Yrotation Xrotation Zrotation
              JOINT leftLittleProximal
              {
                OFFSET 0.8008804099999995 -0.09592306899999814 -0.2618342639000001
                CHANNELS 3 Yrotation Xrotation Zrotation
                JOINT leftLittleIntermediate
                {
                  OFFSET 0.2473981400000007 -0.02542352681000093 0.0023609995859999455
                  CHANNELS 3 Yrotation Xrotation Zrotation
                  JOINT leftLittleDistal
                  {
                    OFFSET 0.1636846068000002 -0.015794634789999318 -0.00043272972159996703
                    CHANNELS 3 Yrotation Xrotation Zrotation
                    End Site
                    {
                      OFFSET 0.1636846068000002 -0.015794634789999318 -0.00043272972159996703
                    }
                  }
                }
              }
              JOINT leftRingProximal
              {
                OFFSET 0.8393409199999996 -0.062242267999998324 -0.0921281570000001
                CHANNELS 3 Yrotation Xrotation Zrotation
                JOINT leftRingIntermediate
                {
                  OFFSET 0.3284471036000003 -0.03264224524000103 0.009405970574000042
                  CHANNELS 3 Yrotation Xrotation Zrotation
                  JOINT leftRingDistal
                  {
                    OFFSET 0.1944779099999996 -0.021732211159998904 0.003073036670000001
                    CHANNELS 3 Yrotation Xrotation Zrotation
                    End Site
                    {
                      OFFSET 0.1944779099999996 -0.021732211159998904 0.003073036670000001
                    }
                  }
                }
              }
              JOINT leftMiddleProximal
              {
                OFFSET 0.8473005200000001 -0.06736028199999788 0.1054214809999999
                CHANNELS 3 Yrotation Xrotation Zrotation
                JOINT leftMiddleIntermediate
                {
                  OFFSET 0.3450455799999995 -0.024824261000000014 0.019013225990000007
                  CHANNELS 3 Yrotation Xrotation Zrotation
                  JOINT leftMiddleDistal
                  {
                    OFFSET 0.2354259489999998 -0.025005222000000327 0.0075590014499999705
                    CHANNELS 3 Yrotation Xrotation Zrotation
                    End Site
                    {
                      OFFSET 0.2354259489999998 -0.025005222000000327 0.0075590014499999705
                    }
                  }
                }
              }
              JOINT leftIndexProximal
              {
                OFFSET 0.8008594516999996 -0.09898495199999946 0.29463124239999994
                CHANNELS 3 Yrotation Xrotation Zrotation
                JOINT leftIndexIntermediate
                {
                  OFFSET 0.30524754480000016 -0.024632811499998963 0.02743047472
                  CHANNELS 3 Yrotation Xrotation Zrotation
                  JOINT leftIndexDistal
                  {
                    OFFSET 0.23067378950000017 -0.016876459159999913 0.008481502700000004
                    CHANNELS 3 Yrotation Xrotation Zrotation
                    End Site
                    {
                      OFFSET 0.23067378950000017 -0.016876459159999913 0.008481502700000004
                    }
                  }
                }
              }
              JOINT leftThumbProximal
              {
                OFFSET 0.25574326469999953 -0.12833321050000013 0.22385764169999997
                CHANNELS 3 Yrotation Xrotation Zrotation
                JOINT leftThumbIntermediate
                {
                  OFFSET 0.22804987480000094 -0.07138466829999968 0.273648441
                  CHANNELS 3 Yrotation Xrotation Zrotation
                  JOINT leftThumbDistal
                  {
                    OFFSET 0.13614857189999907 -0.033867001519998885 0.14238119169999996
                    CHANNELS 3 Yrotation Xrotation Zrotation
                    End Site
                    {
                      OFFSET 0.13614857189999907 -0.033867001519998885 0.14238119169999996
                    }
                  }
                }
              }
            }
          }
        }
      }
    }
  }
  JOINT rightUpperLeg
  {
    OFFSET -0.9749898906000001 -1.8495733739999998 0
    CHANNELS 3 Yrotation Xrotation Zrotation
    JOINT rightLowerLeg
    {
      OFFSET 0 -4.1566544686813165 0
      CHANNELS 3 Yrotation Xrotation Zrotation
      JOINT rightFoot
      {
        OFFSET 0.14539718599999998 -4.225553926 -0.3666210900000001
        CHANNELS 3 Yrotation Xrotation Zrotation
        JOINT rightToes
        {
          OFFSET 0.1706738473 -0.9584117400000015 1.0093348617
          CHANNELS 3 Yrotation Xrotation Zrotation
          End Site
          {
            OFFSET 0.1706738473 -0.9584117400000015 1.0093348617
          }
        }
      }
    }
  }
  JOINT leftUpperLeg
  {
    OFFSET 0.9749898906000001 -1.8495733739999998 0
    CHANNELS 3 Yrotation Xrotation Zrotation
    JOINT leftLowerLeg
    {
      OFFSET 0 -4.156653488267941 0
      CHANNELS 3 Yrotation Xrotation Zrotation
      JOINT leftFoot
      {
        OFFSET -0.14537357999999995 -4.225555399999999 -0.36661124279999996
        CHANNELS 3 Yrotation Xrotation Zrotation
        JOINT leftToes
        {
          OFFSET -0.17066467000000002 -0.9584157000000019 1.0093348617
          CHANNELS 3 Yrotation Xrotation Zrotation
          End Site
          {
            OFFSET -0.17066467000000002 -0.9584157000000019 1.0093348617
          }
        }
      }
    }
  }
}
MOTION
Frames: 4
Frame Time: 0.03333333333333333
0.05445552617311478 -0.3008087151806649 0.027580345049500465 1.5086502045447492 -0.8959918120185775 -5.403019967209624 -1.158761171789559 1.296906360846401 3.0062265966491584 1.266611579523745 1.3390463305040823 11.80853904100285 -0.3326694059117288 1.0447747119507864 -2.1659395700363167 0.43950292237203276 1.5774488630105155 -8.13468443172564 0 0 0 0 0 0 0 0 0 3.4051753301292553 4.498126353602484 5.695670771132345 1.3394149494654208 -1.6742181444491737 67.30133222515694 17.73525639863297 0.03518060574816633 -0.2254667688916199 -9.163844055290589 -11.05664734624959 12.027356962100505 -15.602426309720391 5.214464994954511 35.64273435767532 -3.4992935223569694 1.04305300507658 45.60928153558781 -0.03322488566021157 -0.8197435144565027 22.123055306265794 -11.33186628849821 2.4322654261747108 26.55425735172722 -3.433830745452461 1.538932309815398 40.16023885945496 0.24967181960472704 -0.1871753705508193 17.812876359639088 -8.623132781892355 0.8982529885304984 15.807244054607349 -3.4932461474832626 0.7745247254974674 33.39060116607288 -1.5230898113431308 0.18753295687800758 15.913363046500322 -4.5887117208705765 0.3364916306550921 7.8770588896425515 -2.534941509539589 0.3365369081197007 20.583278499913618 -0.0494417813608725 -0.2147138890764805 13.845813098137798 -0.4730804407176575 18.64878045356986 -11.237337976047385 -31.73819673061943 0.8893913939836823 3.166388629851634 -7.698765864843386 1.6458708870201835 1.106911223367177 -13.854262880498524 3.496984711614668 -5.725273448590804 2.7835436462228627 3.3703679341915485 -83.51892495985201 -14.505515298880319 0.023560081200405408 0.18539927140519916 4.035405890058795 -27.54271099797417 -11.331091519744279 15.842058201984193 5.385670871643049 -35.625569051143444 3.461909161569944 1.3046770632461675 -45.60492038649102 2.5732528616321457 0.5107413095593951 -20.53610146602435 11.348362388220044 2.440556019210264 -26.55377422774932 3.409810496530046 1.5344353608414716 -40.16007451669144 1.5898195860964726 0.5033813857871701 -19.35105432483817 8.564242274651644 0.881616055942572 -15.807288306925729 3.586451825951393 0.7958205336451621 -33.391468298963176 1.333931364827777 0.1540760999240761 -12.278669089146033 4.564991401423402 0.33321860680456517 -7.876673555770169 2.5750014404324757 0.34268215861328705 -20.583724597974957 0.6785135221212822 0.022954558867179682 -10.17900066601642 0.3621046365625209 18.62557192576213 11.179672581606617 31.85289562831857 0.9234789977902909 -3.1230295120357705 8.671556750143779 1.80579840618751 -0.2995432465443738 -4.833045728180811 -1.608948532711423 10.752782866660882 -5.161645411781612 12.400776376911933 2.222427933347622 0.92370980998074 -9.851940429817247 -7.926803493435791 0.0000021242891824140514 -0.5486497864369199 8.72266442360404e-7 11.668912552414945 -19.21167629609663 11.91504962233058 10.26601034553422 21.763916933253935 6.057134746819919 3.2396181791644656 -1.5049871005150197 -8.910441594839439 3.650566690449909e-7 -0.4463342712326031 0.0000024207847570155476
0.05725869536399841 -0.30086593563964925 0.026936471462249756 1.542589185973196 -0.910399004647367 -5.357188370359989 -1.1432137864753575 1.3066851266376 3.0030230711603236 1.2723873951105673 1.3432364120058122 11.780634574183258 -0.3376707046465107 1.0568416301563581 -2.1660209188734956 0.4165599829470263 1.61249074508802 -8.115432570457672 0 0 0 0 0 0 0 0 0 3.427667038810418 4.4944463627666265 5.690676183105389 1.1794351148312456 -1.6270575685671254 67.246908299898 17.71368977507465 0.03510156163490159 -0.2251913222455946 -9.316939762575716 -10.88480538921163 12.077683336827599 -15.603680725860766 5.215346750926127 35.6601841196335 -3.501270710393464 1.0446000862136946 45.637901641702065 -0.033229711975515684 -0.8197397788144719 22.123049274035438 -11.332351650469032 2.433585055640479 26.568111545204687 -3.43514167618962 1.5403192321992925 40.18217332990682 0.24967181960472704 -0.1871753705508193 17.812876359639088 -8.624095118470338 0.8989718476295627 15.821100850350351 -3.4943991434030446 0.7752464970402864 33.406119396125824 -1.5230898113431308 0.18753295687800758 15.913363046500322 -4.58889153460561 0.3365190319256345 7.879080511382721 -2.537286846048333 0.33741004017575615 20.611717727602564 -0.0494417813608725 -0.2147138890764805 13.845813098137798 -0.47935541494542333 18.636073846874254 -11.236993532435166 -31.727167547774318 0.891408891278874 3.1625968040366597 -7.699802873573536 1.641527233852437 1.1112694944891914 -13.877019129543717 3.4933173356449556 -5.702954098230898 2.721252556340504 3.1105816642396316 -83.4346436904028 -14.448078840152965 0.023378182375274316 0.1846836259946386 4.082035250681406 -27.239906821086553 -11.413022803540581 15.85039776536189 5.393765428455763 -35.819826409330226 3.4765463882214216 1.318113430228562 -45.831341710624 2.575830109656004 0.5120511572289076 -20.56894626482041 11.357518070531569 2.460112083262702 -26.746044806698585 3.4232747235806906 1.5487345213867612 -40.38503451763132 1.592355516521761 0.5046091597904694 -19.383877558775787 8.581671419631093 0.8926679331093014 -15.99842346749096 3.6030053210705772 0.8062707305413678 -33.61612071763817 1.336691400215245 0.15477179457045231 -12.311524069191766 4.584937325699587 0.34696057587787155 -8.067973495961118 2.593517413810988 0.3497063626680033 -20.80865411709746 0.6813905687527699 0.02333652588849842 -10.211847789842372 0.2958258303434084 18.615757144339465 11.14038926152271 31.93682157477381 0.9510988560066876 -3.1051051208023748 8.69830563340874 1.787807486369653 -0.2680772796709454 -4.822612340148908 -1.652477242476141 10.694003261487392 -5.164649273314735 12.498663224413168 2.2103326782566115 0.8810037381653519 -9.902082975926197 -7.900420767100672 -0.0000034119647809656254 -0.5385643447433639 9.310579864891976e-8 11.68038653966905 -19.189300724994013 11.837388588749459 10.245624277103525 21.758658622536757 6.063737604997334 3.241687166688092 -1.4954899888214341 -8.892342660647998 0.000007980094366005795 -0.4562845647192948 -0.0000010964350685006718
0.07801571488380432 -0.30118827755859456 0.022286012768745422 1.8042437086431231 -1.0148096739057326 -5.025441388668276 -1.0271870365624869 1.3784534092613387 2.978480919391389 1.3166001552510094 1.3744473078367687 11.576872007037622 -0.37796881409551764 1.1414740764612399 -2.1654095512038416 0.23365592086383505 1.8635935080776789 -7.971883258811801 0 0 0 0 0 0 0 0 0 3.591159720097908 4.467984717466944 5.654993857442877 0.03227024312746996 -1.286409428086852 66.85680627395938 17.566110942297392 0.03451720682704922 -0.22336301957649216 -10.436410917824102 -9.618499462402411 12.460236330465722 -15.613050126537917 5.221903590637317 35.79073083841625 -3.516046426785912 1.0563206329267918 45.85158947848727 -0.03323254038973652 -0.8197516795026678 22.123049274035438 -11.335956198714266 2.443497592948492 26.671616119540662 -3.4449477168582967 1.5507531537719768 40.34621540815152 0.24967181960472704 -0.1871753705508193 17.812876359639088 -8.631258084348342 0.9044738194870094 15.924901446366361 -3.502983586975345 0.7805473724715312 33.522092620737425 -1.5230898113431308 0.18753295687800758 15.913363046500322 -4.59022451414814 0.33671697742563683 7.894323729019493 -2.554841547554196 0.34400945361935964 20.82464507092017 -0.0494417813608725 -0.2147138890764805 13.845813098137798 -0.5261774427210214 18.541055771458513 -11.23443668698656 -31.644781498439638 0.9064547149792523 3.1341425795669853 -7.707480981885119 1.6090676811137634 1.1438883210228106 -14.044185492521258 3.4671391017832938 -5.537063925577343 2.2069492804867807 1.2438967172642053 -82.80372021448763 -14.045931884279064 0.022126406703855968 0.17965001402452715 4.377340895348033 -25.043656526166934 -12.004333663520937 15.912351907908558 5.45362083007477 -37.2350872307354 3.5818794806846186 1.417871815666152 -47.486287207689706 2.594694985197398 0.5217335044772892 -20.809339016130142 11.421201108774914 2.603208286820887 -28.14888924969766 3.5200434413404573 1.6549007278278762 -42.03157592849263 1.6110644485605803 0.5137013009931491 -19.624271847747373 8.705390041055606 0.9748539806540766 -17.394896246405782 3.72289272091329 0.8845777749803063 -35.2602982060953 1.3569536725687499 0.159958969285603 -12.552003901354542 4.7251129019043905 0.44917347546755915 -9.465520538473998 2.7281995418343707 0.4033300569872387 -22.454829861760633 0.7024510426507635 0.026270841131763114 -10.452302845397728 -0.18773402786697252 18.545286438050248 10.856024434052209 32.54786666695278 1.151453166242989 -2.9735373066997295 8.890398294860889 1.6576719542335403 -0.039861416730163364 -4.747456628081771 -1.9601023198981002 10.264323576028687 -5.206477432576944 13.194708153840695 2.1215457883939237 0.5758413882541774 -10.259178520366815 -7.70317850453287 -0.0000021661459931912717 -0.4687182619981018 0.0000015926805435767088 11.760648207226915 -19.02497347308557 11.268936580990301 10.085304843787737 21.715466862574573 6.109230197588599 3.255163411779714 -1.4239318434157187 -8.7563544573987 0.000008037518113571522 -0.5290785611778519 -0.0000011299743535047357
0.11525706946849823 -0.30155353482177816 0.014288533478975296 2.302363843716619 -1.1959219059498687 -4.4512966862965735 -0.8164730904560403 1.5055255906215363 2.932543063013792 1.3998817817262827 1.431022926667009 11.21921762152672 -0.45930241199490557 1.2803228430662967 -2.1611050413050763 -0.13055443272230116 2.291144377127464 -7.712991113433831 0 0 0 0 0 0 0 0 0 3.876215227076983 4.422567781567989 5.596223138571463 -1.9267541725236363 -0.7101597813138618 66.1963855388042 17.334776054118862 0.0336179228844134 -0.2205002979080697 -12.389376330554912 -7.348790403731994 13.166225038411566 -15.630098644431763 5.233893062620643 36.02840410882591 -3.5428504998070807 1.0777822478372028 46.240673042674246 -0.033220489610749644 -0.8197368970334792 22.123038495820733 -11.342459008485333 2.4614964732158855 26.86010593867971 -3.46271186611672 1.5698160227127744 40.644821884641985 0.24967181960472704 -0.1871753705508193 17.812876359639088 -8.644268431371694 0.9144625219584475 16.113859902482766 -3.518599419443271 0.7902880840662267 33.73322122230996 -1.5230898113431308 0.18753295687800758 15.913363046500322 -4.592651117273554 0.3370540103983612 7.92204068440515 -2.5867315042876515 0.35617752939679953 21.212301316367704 -0.0494417813608725 -0.2147138890764805 13.845813098137798 -0.611333186708733 18.367983365510018 -11.22953925892912 -31.494853776078827 0.933936857592917 3.0822908854922217 -7.721562760100899 1.550009564878612 1.203287865251292 -14.340880840599542 3.423858212949096 -5.237703989587376 1.1028607300337603 -1.9338173842141382 -81.64585110123556 -13.388164306204194 0.020085303916395535 0.1713628813964469 4.739779055179889 -21.229565051676992 -13.030048072561147 16.02683920874028 5.563308381590466 -39.71034507218638 3.759962969575928 1.6005562748191218 -50.39623663336871 2.627804592262348 0.538982392147351 -21.232979240909398 11.521255498173238 2.8557708356853952 -30.60876203402393 3.6830774840113234 1.848663632131607 -44.933569477976135 1.6438833976806735 0.5298930426540821 -20.047871430220933 8.91102955406958 1.1253009729788632 -19.849098191551793 3.9285275965580406 1.0308305143491712 -38.15768259549562 1.3926241275131666 0.16931810132538874 -12.97587039696301 4.951329876318742 0.6360769933938154 -11.922161656466029 2.961549003432576 0.507128904113064 -25.355008284991627 0.7395452346264371 0.031661060029375826 -10.87611898297693 -1.035323994939075 18.42279971183006 10.365022691760153 33.616355747308646 1.4979715815498509 -2.738657314670321 9.21817518922028 1.4317991424116037 0.35573869022059335 -4.6156880373370255 -2.4535541962950034 9.506902525647208 -5.335860794406144 14.327123574425421 1.9662221891619522 0.05695265402315721 -10.838965503144344 -7.341361751725476 -0.000003095477742331603 -0.3570159246747876 0.0000018524671717423669 11.890144542812836 -18.744297007396135 10.266777530669993 9.775382539025305 21.650563893628963 6.189138245463763 3.2773351849067303 -1.334734453647237 -8.510674612649677 5.150216709341945e-7 -0.6573524670569514 -0.0000010614594169680895
